<svg height="504pt" viewBox="0 0 504 504" width="504pt" xmlns="http://www.w3.org/2000/svg"><g fill="#690589"><path d="m283.152344 256.011719h-67.089844c-2.207031 0-4-1.792969-4-4s1.792969-4 4-4h63.089844v-138.105469c0-29.773438 24.222656-54 54-54h57.121094c2.207031 0 4 1.792969 4 4 0 2.210938-1.792969 4-4 4h-57.121094c-25.363282 0-46 20.636719-46 46v142.105469c0 2.207031-1.789063 4-4 4zm0 0"/><path d="m390.273438 448.113281h-57.121094c-29.777344 0-54-24.222656-54-54v-142.101562c0-2.207031 1.792968-4 4-4 2.207031 0 4 1.792969 4 4v142.101562c0 25.363281 20.636718 46 46 46h57.121094c2.207031 0 4 1.792969 4 4s-1.792969 4-4 4zm0 0"/><path d="m390.273438 320.046875h-107.121094c-2.207032 0-4-1.792969-4-4s1.792968-4 4-4h107.121094c2.207031 0 4 1.792969 4 4s-1.792969 4-4 4zm0 0"/><path d="m390.273438 191.976562h-107.121094c-2.207032 0-4-1.792968-4-4 0-2.207031 1.792968-4 4-4h107.121094c2.207031 0 4 1.792969 4 4 0 2.207032-1.792969 4-4 4zm0 0"/></g><path d="m139.398438 147.5c-57.71875-15.113281-116.761719 19.425781-131.875 77.144531-15.109376 57.722657 19.429687 116.761719 77.148437 131.875s116.761719-19.425781 131.875-77.144531-19.425781-116.761719-77.148437-131.875zm0 0" fill="#fcc24c"/><path d="m112.03125 143.980469c-4.3125 0-8.558594.28125-12.738281.773437 53.65625 6.304688 95.292969 51.902344 95.292969 107.257813 0 55.347656-41.636719 100.949219-95.292969 107.257812 4.179687.492188 8.425781.769531 12.738281.769531 59.664062 0 108.03125-48.367187 108.03125-108.027343 0-59.664063-48.367188-108.03125-108.03125-108.03125zm0 0" fill="#dea42e"/><path d="m112.03125 360.042969c4.3125 0 8.558594-.28125 12.738281-.773438-53.65625-6.308593-95.292969-51.90625-95.292969-107.257812 0-55.351563 41.636719-100.953125 95.292969-107.257813-4.179687-.492187-8.425781-.773437-12.738281-.773437-59.664062 0-108.03125 48.367187-108.03125 108.03125 0 59.664062 48.367188 108.03125 108.03125 108.03125zm0 0" fill="#fce06a"/><path d="m115 190.933594c3.394531 0 6.078125 2.683594 6.078125 6.078125v3.113281c8.34375.988281 15.414063 3.675781 21.917969 7.773438 2.261718 1.273437 4.242187 3.394531 4.242187 6.789062 0 4.382812-3.535156 7.777344-7.917969 7.777344-1.414062 0-2.828124-.425782-4.242187-1.273438-4.949219-2.96875-9.757813-5.089844-14.5625-6.222656v27.148438c21.492187 5.371093 30.679687 13.996093 30.679687 29.125 0 15.550781-12.15625 25.875-30.117187 27.570312v8.480469c0 3.394531-2.683594 6.082031-6.078125 6.082031s-6.222656-2.6875-6.222656-6.082031v-8.761719c-10.601563-1.132812-20.355469-4.949219-28.984375-11.03125-2.402344-1.554688-3.816407-3.816406-3.816407-6.785156 0-4.382813 3.394532-7.777344 7.777344-7.777344 1.695313 0 3.390625.566406 4.664063 1.554688 6.644531 4.804687 13.148437 8.058593 20.925781 9.472656v-27.851563c-20.644531-5.375-30.257812-13.148437-30.257812-29.128906 0-15.128906 12.015624-25.589844 29.691406-27.003906v-2.96875c0-3.390625 2.828125-6.078125 6.222656-6.078125zm-5.65625 48.210937v-25.023437c-9.046875.847656-13.574219 5.652344-13.574219 11.875 0 5.941406 2.6875 9.617187 13.574219 13.148437zm11.171875 19.652344v25.734375c9.046875-.992188 13.996094-5.515625 13.996094-12.300781 0-6.21875-3.113281-10.039063-13.996094-13.433594zm0 0" fill="#690589"/><path d="m112.03125 364.042969c-61.773438 0-112.03125-50.257813-112.03125-112.03125 0-61.773438 50.257812-112.03125 112.03125-112.03125 61.777344 0 112.03125 50.253906 112.03125 112.03125 0 61.773437-50.257812 112.03125-112.03125 112.03125zm0-216.0625c-57.363281 0-104.03125 46.667969-104.03125 104.03125s46.667969 104.03125 104.03125 104.03125 104.03125-46.667969 104.03125-104.03125-46.667969-104.03125-104.03125-104.03125zm0 0" fill="#690589"/><path d="m35.160156 205.253906c-.769531 0-1.546875-.222656-2.234375-.6875-1.828125-1.238281-2.308593-3.722656-1.074219-5.550781 4.632813-6.855469 10.089844-13.152344 16.214844-18.722656 1.636719-1.484375 4.164063-1.363281 5.652344.269531 1.484375 1.636719 1.367188 4.164062-.269531 5.652344-5.660157 5.140625-10.695313 10.957031-14.972657 17.277344-.769531 1.144531-2.03125 1.761718-3.316406 1.761718zm0 0" fill="#690589"/><path d="m483.613281 20.386719c-21.839843-21.84375-57.253906-21.84375-79.097656 0-21.84375 21.839843-21.84375 57.253906 0 79.097656s57.257813 21.84375 79.097656 0c21.84375-21.84375 21.84375-57.257813 0-79.097656zm0 0" fill="#f4efed"/><path d="m437.730469 91.890625-31.789063-30.789063 13.796875-14.25 17.648438 17.09375 30.667969-31.195312 14.144531 13.902344zm0 0" fill="#7bac51"/><path d="m437.730469 95.890625c-1.003907 0-2.007813-.375-2.785157-1.125l-31.792968-30.792969c-1.585938-1.539062-1.625-4.070312-.089844-5.65625l13.800781-14.25c.738281-.761718 1.746094-1.199218 2.808594-1.214844 1.046875-.042968 2.082031.386719 2.847656 1.125l14.792969 14.332032 27.886719-28.363282c.742187-.753906 1.757812-1.1875 2.816406-1.195312 1.097656.027344 2.082031.402344 2.839844 1.148438l14.140625 13.90625c1.578125 1.546874 1.601562 4.082031.050781 5.65625l-44.46875 45.234374c-.777344.796876-1.8125 1.195313-2.847656 1.195313zm-26.132813-34.882813 26.0625 25.246094 38.882813-39.550781-8.441407-8.300781-27.863281 28.34375c-1.542969 1.570312-4.054687 1.601562-5.636719.070312l-14.773437-14.308594zm0 0" fill="#690589"/><path d="m444.066406 119.863281c-33.042968 0-59.929687-26.886719-59.929687-59.929687 0-33.050782 26.886719-59.933594 59.929687-59.933594 33.050782 0 59.933594 26.882812 59.933594 59.933594 0 33.042968-26.882812 59.929687-59.933594 59.929687zm0-111.863281c-28.632812 0-51.929687 23.296875-51.929687 51.933594 0 28.632812 23.296875 51.929687 51.929687 51.929687 28.636719 0 51.933594-23.296875 51.933594-51.929687 0-28.636719-23.296875-51.933594-51.933594-51.933594zm0 0" fill="#690589"/><path d="m500 187.976562c0 30.890626-25.042969 55.933594-55.933594 55.933594s-55.929687-25.042968-55.929687-55.933594c0-30.890624 25.039062-55.929687 55.929687-55.929687s55.933594 25.039063 55.933594 55.929687zm0 0" fill="#f4efed"/><path d="m437.730469 219.9375-31.789063-30.792969 13.796875-14.246093 17.648438 17.09375 30.667969-31.199219 14.144531 13.90625zm0 0" fill="#7bac51"/><path d="m437.730469 223.9375c-1.003907 0-2.007813-.378906-2.785157-1.128906l-31.792968-30.789063c-1.585938-1.539062-1.625-4.070312-.089844-5.65625l13.800781-14.246093c.738281-.761719 1.746094-1.203126 2.808594-1.21875 1.046875-.074219 2.082031.386718 2.847656 1.128906l14.792969 14.328125 27.886719-28.363281c.742187-.757813 1.757812-1.1875 2.816406-1.195313 1.097656.039063 2.082031.402344 2.839844 1.148437l14.140625 13.90625c1.578125 1.546876 1.601562 4.082032.050781 5.65625l-44.46875 45.234376c-.777344.792968-1.8125 1.195312-2.847656 1.195312zm-26.132813-34.882812 26.0625 25.246093 38.882813-39.554687-8.441407-8.292969-27.863281 28.34375c-1.542969 1.570313-4.054687 1.597656-5.636719.070313l-14.773437-14.3125zm0 0" fill="#690589"/><path d="m444.066406 247.90625c-33.042968 0-59.929687-26.882812-59.929687-59.929688 0-33.046874 26.886719-59.929687 59.929687-59.929687 33.046875 0 59.933594 26.882813 59.933594 59.929687 0 33.046876-26.882812 59.929688-59.933594 59.929688zm0-111.859375c-28.632812 0-51.929687 23.296875-51.929687 51.929687 0 28.632813 23.296875 51.929688 51.929687 51.929688 28.636719 0 51.933594-23.292969 51.933594-51.929688 0-28.636718-23.296875-51.929687-51.933594-51.929687zm0 0" fill="#690589"/><path d="m500 316.023438c0 30.890624-25.042969 55.933593-55.933594 55.933593s-55.929687-25.042969-55.929687-55.933593c0-30.890626 25.039062-55.929688 55.929687-55.929688s55.933594 25.039062 55.933594 55.929688zm0 0" fill="#f4efed"/><path d="m437.730469 347.980469-31.789063-30.789063 13.796875-14.246094 17.648438 17.09375 30.667969-31.195312 14.144531 13.902344zm0 0" fill="#7bac51"/><path d="m437.730469 351.980469c-1.003907 0-2.007813-.375-2.785157-1.125l-31.792968-30.792969c-1.585938-1.535156-1.625-4.070312-.089844-5.65625l13.800781-14.246094c.738281-.761718 1.746094-1.199218 2.808594-1.214844 1.046875-.058593 2.082031.382813 2.847656 1.125l14.792969 14.328126 27.886719-28.363282c.742187-.753906 1.757812-1.1875 2.816406-1.195312 1.097656.054687 2.082031.402344 2.839844 1.148437l14.140625 13.90625c1.578125 1.546875 1.601562 4.082031.050781 5.65625l-44.46875 45.234375c-.777344.800782-1.8125 1.195313-2.847656 1.195313zm-26.132813-34.878907 26.0625 25.246094 38.882813-39.554687-8.441407-8.296875-27.863281 28.34375c-1.542969 1.570312-4.054687 1.597656-5.636719.070312l-14.773437-14.308594zm0 0" fill="#690589"/><path d="m444.066406 375.953125c-33.042968 0-59.929687-26.882813-59.929687-59.929687 0-33.046876 26.886719-59.929688 59.929687-59.929688 33.046875 0 59.933594 26.882812 59.933594 59.929688 0 33.046874-26.882812 59.929687-59.933594 59.929687zm0-111.859375c-28.632812 0-51.929687 23.292969-51.929687 51.929688 0 28.636718 23.296875 51.929687 51.929687 51.929687 28.636719 0 51.933594-23.296875 51.933594-51.929687 0-28.632813-23.296875-51.929688-51.933594-51.929688zm0 0" fill="#690589"/><path d="m483.609375 404.519531c-21.839844-21.84375-57.253906-21.84375-79.097656 0s-21.84375 57.257813 0 79.097657c21.84375 21.84375 57.257812 21.84375 79.097656 0 21.84375-21.839844 21.84375-57.253907 0-79.097657zm0 0" fill="#f4efed"/><path d="m437.730469 476.027344-31.789063-30.789063 13.796875-14.25 17.648438 17.097657 30.667969-31.199219 14.144531 13.90625zm0 0" fill="#7bac51"/><path d="m437.730469 480.027344c-1.003907 0-2.007813-.375-2.785157-1.125l-31.792968-30.792969c-1.585938-1.539063-1.625-4.070313-.089844-5.65625l13.800781-14.246094c.738281-.761719 1.746094-1.199219 2.808594-1.21875 1.046875-.039062 2.082031.390625 2.847656 1.128907l14.792969 14.328124 27.886719-28.363281c.742187-.757812 1.757812-1.1875 2.816406-1.195312 1.097656-.019531 2.082031.402343 2.839844 1.148437l14.140625 13.90625c1.578125 1.546875 1.601562 4.082032.050781 5.65625l-44.46875 45.234375c-.777344.796875-1.8125 1.195313-2.847656 1.195313zm-26.132813-34.882813 26.0625 25.246094 38.882813-39.550781-8.441407-8.296875-27.863281 28.34375c-1.542969 1.570312-4.054687 1.597656-5.636719.070312l-14.773437-14.3125zm0 0" fill="#690589"/><path d="m444.066406 504c-33.042968 0-59.929687-26.882812-59.929687-59.929688 0-33.046874 26.886719-59.933593 59.929687-59.933593 33.046875 0 59.933594 26.886719 59.933594 59.933593 0 33.046876-26.882812 59.929688-59.933594 59.929688zm0-111.863281c-28.632812 0-51.929687 23.296875-51.929687 51.933593 0 28.636719 23.296875 51.929688 51.929687 51.929688 28.636719 0 51.933594-23.296875 51.933594-51.929688 0-28.632812-23.296875-51.933593-51.933594-51.933593zm0 0" fill="#690589"/></svg>